<svg width="639.1187011718749px" height="121.40498046875px" xmlns="http://www.w3.org/2000/svg" viewBox="-69.55935058593747 14.297509765625001 639.1187011718749 121.40498046875" style="background: rgba(0, 0, 0, 0);" preserveAspectRatio="xMidYMid"><defs><filter id="editing-extrude-glow"><feFlood flood-color="#333333" result="flood-1"></feFlood><feMorphology operator="erode" radius="1" in="SourceAlpha" result="erode"></feMorphology><feComposite operator="in" in="flood-1" in2="erode" result="comp1"></feComposite><feConvolveMatrix order="3,3" divisor="1" in="comp1" result="convolve" kernelMatrix="0 0 0 1 1 1 0 0 0"></feConvolveMatrix><feOffset dx="-3" dy="0" in="convolve" result="extrude"></feOffset><feComposite operator="in" in="flood-1" in2="extrude" result="comp-extrude"></feComposite><feFlood flood-color="#000000" result="flood-2"></feFlood><feComposite operator="in" in="flood-2" in2="SourceAlpha" result="comp2"></feComposite><feMorphology operator="dilate" radius="1" in="comp2" result="dilate"></feMorphology><feOffset dx="-4.5" dy="0" in="dilate" result="offset"></feOffset><feGaussianBlur in="offset" stdDeviation="5.8" result="blur"></feGaussianBlur><feComponentTransfer in="blur" result="shadow"><feFuncA type="linear" slope="0.8" intercept="-0.2"></feFuncA></feComponentTransfer><feMerge><feMergeNode in="shadow"></feMergeNode><feMergeNode in="comp-extrude"></feMergeNode><feMergeNode in="SourceGraphic"></feMergeNode></feMerge></filter></defs><g filter="url(#editing-extrude-glow)"><g transform="translate(24.14594852924347, 104.79000091552734)"><path d="M6.53 0L-0.83 0L10.75-42.24L24.13-42.24L27.07-18.11L38.98-42.24L50.18-42.24L51.33-10.62L51.33-10.62Q51.58-4.35 54.66-2.43L54.66-2.43L54.66-2.43Q53.95-1.15 51.90 0.06L51.90 0.06L51.90 0.06Q49.86 1.28 47.14 1.28L47.14 1.28L47.14 1.28Q44.42 1.28 42.82 0.51L42.82 0.51L42.82 0.51Q41.22-0.26 40.32-1.54L40.32-1.54L40.32-1.54Q38.72-3.84 38.72-8.26L38.72-8.26L38.72-28.03L26.11 0L18.18 0L13.70-28.74L6.53 0ZM60.19-1.92L60.19-1.92L60.19-1.92Q58.69-3.58 58.02-6.21L58.02-6.21L58.02-6.21Q57.34-8.83 57.34-13.12L57.34-13.12L57.34-13.12Q57.34-17.41 58.82-21.31L58.82-21.31L58.82-21.31Q60.29-25.22 62.98-28.03L62.98-28.03L62.98-28.03Q68.48-33.92 77.57-33.92L77.57-33.92L77.57-33.92Q80.83-33.92 83.20-32.83L83.20-32.83L94.14-33.92L89.41-8.96L89.41-8.96Q89.22-8.19 89.22-6.78L89.22-6.78L89.22-6.78Q89.22-5.38 90.08-4.48L90.08-4.48L90.08-4.48Q90.94-3.58 92.22-3.46L92.22-3.46L92.22-3.46Q91.58-1.28 89.25 0L89.25 0L89.25 0Q86.91 1.28 84.29 1.28L84.29 1.28L84.29 1.28Q81.66 1.28 79.90 0.29L79.90 0.29L79.90 0.29Q78.14-0.70 77.63-2.37L77.63-2.37L77.63-2.37Q76.61-0.77 74.43 0.26L74.43 0.26L74.43 0.26Q72.26 1.28 69.34 1.28L69.34 1.28L69.34 1.28Q66.43 1.28 64.06 0.51L64.06 0.51L64.06 0.51Q61.70-0.26 60.19-1.92ZM73.70-27.90L73.70-27.90L73.70-27.90Q72.96-26.75 72.32-24.80L72.32-24.80L72.32-24.80Q71.68-22.85 70.62-17.63L70.62-17.63L70.62-17.63Q69.57-12.42 69.57-8.70L69.57-8.70L69.57-8.70Q69.57-4.99 70.14-3.90L70.14-3.90L70.14-3.90Q70.72-2.82 71.74-2.82L71.74-2.82L71.74-2.82Q73.79-2.82 75.30-4.77L75.30-4.77L75.30-4.77Q76.80-6.72 77.38-10.18L77.38-10.18L80.77-28.93L80.77-28.93Q79.42-30.08 77.86-30.08L77.86-30.08L77.86-30.08Q76.29-30.08 75.36-29.57L75.36-29.57L75.36-29.57Q74.43-29.06 73.70-27.90ZM117.50-33.92L117.50-33.92L117.50-33.92Q119.81-33.92 121.60-33.41L121.60-33.41L121.60-33.41Q121.66-33.66 121.79-34.37L121.79-34.37L122.11-36.35L122.11-36.35Q122.37-37.63 122.75-39.74L122.75-39.74L123.78-44.80L136.51-46.08L129.41-8.96L129.41-8.96Q129.34-8.58 129.34-7.94L129.34-7.94L129.34-6.91L129.34-6.91Q129.34-5.50 130.05-4.45L130.05-4.45L130.05-4.45Q130.75-3.39 131.90-3.39L131.90-3.39L131.90-3.39Q130.62-0.38 126.72 0.90L126.72 0.90L126.72 0.90Q125.38 1.28 123.49 1.28L123.49 1.28L123.49 1.28Q121.60 1.28 119.87 0.29L119.87 0.29L119.87 0.29Q118.14-0.70 117.63-2.37L117.63-2.37L117.63-2.37Q116.61-0.70 114.56 0.29L114.56 0.29L114.56 0.29Q112.51 1.28 109.54 1.28L109.54 1.28L109.54 1.28Q106.56 1.28 104.10 0.51L104.10 0.51L104.10 0.51Q101.63-0.26 100.10-1.92L100.10-1.92L100.10-1.92Q97.28-5.18 97.28-12.61L97.28-12.61L97.28-12.61Q97.28-22.21 102.91-28.03L102.91-28.03L102.91-28.03Q108.54-33.92 117.50-33.92ZM117.06-30.08L117.06-30.08L117.06-30.08Q114.69-30.08 113.41-27.52L113.41-27.52L113.41-27.52Q112.13-24.96 110.82-18.62L110.82-18.62L110.82-18.62Q109.50-12.29 109.50-6.59L109.50-6.59L109.50-6.59Q109.50-2.69 111.81-2.69L111.81-2.69L111.81-2.69Q113.86-2.69 115.30-4.74L115.30-4.74L115.30-4.74Q116.74-6.78 117.31-10.18L117.31-10.18L120.77-28.93L120.77-28.93Q119.42-30.08 117.06-30.08ZM140.13-1.92L140.13-1.92L140.13-1.92Q138.62-3.58 137.95-6.21L137.95-6.21L137.95-6.21Q137.28-8.83 137.28-13.12L137.28-13.12L137.28-13.12Q137.28-17.41 138.75-21.31L138.75-21.31L138.75-21.31Q140.22-25.22 142.91-28.03L142.91-28.03L142.91-28.03Q148.42-33.92 157.50-33.92L157.50-33.92L157.50-33.92Q160.77-33.92 163.14-32.83L163.14-32.83L174.08-33.92L169.34-8.96L169.34-8.96Q169.15-8.19 169.15-6.78L169.15-6.78L169.15-6.78Q169.15-5.38 170.02-4.48L170.02-4.48L170.02-4.48Q170.88-3.58 172.16-3.46L172.16-3.46L172.16-3.46Q171.52-1.28 169.18 0L169.18 0L169.18 0Q166.85 1.28 164.22 1.28L164.22 1.28L164.22 1.28Q161.60 1.28 159.84 0.29L159.84 0.29L159.84 0.29Q158.08-0.70 157.57-2.37L157.57-2.37L157.57-2.37Q156.54-0.77 154.37 0.26L154.37 0.26L154.37 0.26Q152.19 1.28 149.28 1.28L149.28 1.28L149.28 1.28Q146.37 1.28 144 0.51L144 0.51L144 0.51Q141.63-0.26 140.13-1.92ZM153.63-27.90L153.63-27.90L153.63-27.90Q152.90-26.75 152.26-24.80L152.26-24.80L152.26-24.80Q151.62-22.85 150.56-17.63L150.56-17.63L150.56-17.63Q149.50-12.42 149.50-8.70L149.50-8.70L149.50-8.70Q149.50-4.99 150.08-3.90L150.08-3.90L150.08-3.90Q150.66-2.82 151.68-2.82L151.68-2.82L151.68-2.82Q153.73-2.82 155.23-4.77L155.23-4.77L155.23-4.77Q156.74-6.72 157.31-10.18L157.31-10.18L160.70-28.93L160.70-28.93Q159.36-30.08 157.79-30.08L157.79-30.08L157.79-30.08Q156.22-30.08 155.30-29.57L155.30-29.57L155.30-29.57Q154.37-29.06 153.63-27.90ZM204.61 1.28L204.61 1.28L204.61 1.28Q196.86 1.28 196.86-4.74L196.86-4.74L196.86-4.74Q196.93-6.40 197.44-9.22L197.44-9.22L198.59-15.10L198.59-15.10Q200.32-23.42 200.32-25.28L200.32-25.28L200.32-25.28Q200.32-28.99 198.14-28.99L198.14-28.99L198.14-28.99Q194.50-28.99 192.58-19.46L192.58-19.46L188.80 0L175.94 1.28L182.59-32.70L193.09-33.92L192.06-27.65L192.06-27.65Q195.07-33.92 204.29-33.92L204.29-33.92L204.29-33.92Q208.77-33.92 210.66-32.03L210.66-32.03L210.66-32.03Q212.54-30.14 212.54-25.92L212.54-25.92L212.54-25.92Q212.54-21.95 210.50-12.67L210.50-12.67L210.50-12.67Q209.54-8.51 209.54-6.94L209.54-6.94L209.54-6.94Q209.54-5.38 210.40-4.48L210.40-4.48L210.40-4.48Q211.26-3.58 212.54-3.46L212.54-3.46L212.54-3.46Q211.90-1.28 209.70 0L209.70 0L209.70 0Q207.49 1.28 204.61 1.28ZM238.02-7.23L238.02-7.23L238.02-7.23Q234.69-3.78 228.61-3.78L228.61-3.78L228.61-3.78Q220.99-3.78 219.39-9.34L219.39-9.34L219.39-9.34Q218.88-11.01 218.88-12.86L218.88-12.86L218.88-12.86Q218.88-14.72 219.26-16.64L219.26-16.64L222.27-32.64L235.26-33.92L231.74-15.30L231.74-15.30Q231.62-14.46 231.42-13.57L231.42-13.57L231.42-13.57Q231.23-12.67 231.23-11.74L231.23-11.74L231.23-11.74Q231.23-10.82 231.55-10.21L231.55-10.21L231.55-10.21Q231.87-9.60 232.32-9.22L232.32-9.22L232.32-9.22Q233.09-8.70 234.46-8.70L234.46-8.70L234.46-8.70Q235.84-8.70 237.02-10.37L237.02-10.37L237.02-10.37Q238.21-12.03 238.78-14.91L238.78-14.91L242.30-32.64L254.91-33.92L250.11-8.77L250.11-8.77Q247.74 3.52 242.88 8.38L242.88 8.38L242.88 8.38Q240.38 10.88 237.15 11.87L237.15 11.87L237.15 11.87Q233.92 12.86 229.76 12.86L229.76 12.86L229.76 12.86Q223.04 12.86 219.20 10.75L219.20 10.75L219.20 10.75Q215.36 8.64 215.36 5.12L215.36 5.12L215.36 5.12Q215.36 2.50 217.34 0.99L217.34 0.99L217.34 0.99Q219.33-0.51 222.40-0.51L222.40-0.51L222.40-0.51Q225.09-0.51 227.14 0.64L227.14 0.64L227.14 0.64Q228.35 1.34 228.93 2.24L228.93 2.24L228.93 2.24Q227.46 3.52 227.46 5.63L227.46 5.63L227.46 5.63Q227.46 8.45 230.02 8.45L230.02 8.45L230.02 8.45Q234.24 8.45 236.67-1.28L236.67-1.28L236.67-1.28Q237.38-4.16 238.02-7.23ZM311.94-26.56L311.94-26.56L311.94-26.56Q311.94 0.70 282.37 0.70L282.37 0.70L282.37 0.70Q277.63 0.70 269.82-0.45L269.82-0.45L276.99-38.27L276.99-38.27Q277.50-40.83 277.82-42.30L277.82-42.30L277.82-42.30Q287.55-43.01 291.87-43.01L291.87-43.01L291.87-43.01Q296.19-43.01 300.16-42.11L300.16-42.11L300.16-42.11Q304.13-41.22 306.75-39.23L306.75-39.23L306.75-39.23Q311.94-35.33 311.94-26.56ZM298.75-28.93L298.75-28.93L298.75-28.93Q298.75-38.46 291.90-38.46L291.90-38.46L291.26-38.46L291.26-38.46Q290.94-38.46 290.62-38.40L290.62-38.40L284.03-4.03L284.03-4.03Q284.29-3.90 284.54-3.90L284.54-3.90L285.06-3.90L285.06-3.90Q287.42-3.90 289.89-5.38L289.89-5.38L289.89-5.38Q292.35-6.85 294.27-9.86L294.27-9.86L294.27-9.86Q298.75-16.83 298.75-28.93ZM330.56-3.52L330.56-3.52L330.56-3.52Q328.58 1.28 322.24 1.28L322.24 1.28L322.24 1.28Q318.98 1.28 316.93-0.96L316.93-0.96L316.93-0.96Q315.20-2.94 315.20-4.93L315.20-4.93L315.20-4.93Q315.20-10.11 317.57-20.22L317.57-20.22L319.94-32.64L332.93-33.92L329.02-13.70L329.02-13.70Q327.94-8.96 327.94-7.30L327.94-7.30L327.94-7.30Q327.94-3.65 330.56-3.52ZM321.09-41.54L321.09-41.54L321.09-41.54Q321.09-44.03 323.17-45.38L323.17-45.38L323.17-45.38Q325.25-46.72 328.26-46.72L328.26-46.72L328.26-46.72Q331.26-46.72 333.09-45.38L333.09-45.38L333.09-45.38Q334.91-44.03 334.91-41.54L334.91-41.54L334.91-41.54Q334.91-39.04 332.90-37.76L332.90-37.76L332.90-37.76Q330.88-36.48 327.87-36.48L327.87-36.48L327.87-36.48Q324.86-36.48 322.98-37.76L322.98-37.76L322.98-37.76Q321.09-39.04 321.09-41.54ZM338.78-1.92L338.78-1.92L338.78-1.92Q337.28-3.58 336.61-6.21L336.61-6.21L336.61-6.21Q335.94-8.83 335.94-13.12L335.94-13.12L335.94-13.12Q335.94-17.41 337.41-21.31L337.41-21.31L337.41-21.31Q338.88-25.22 341.57-28.03L341.57-28.03L341.57-28.03Q347.07-33.92 356.16-33.92L356.16-33.92L356.16-33.92Q359.42-33.92 361.79-32.83L361.79-32.83L372.74-33.92L368.00-8.96L368.00-8.96Q367.81-8.19 367.81-6.78L367.81-6.78L367.81-6.78Q367.81-5.38 368.67-4.48L368.67-4.48L368.67-4.48Q369.54-3.58 370.82-3.46L370.82-3.46L370.82-3.46Q370.18-1.28 367.84 0L367.84 0L367.84 0Q365.50 1.28 362.88 1.28L362.88 1.28L362.88 1.28Q360.26 1.28 358.50 0.29L358.50 0.29L358.50 0.29Q356.74-0.70 356.22-2.37L356.22-2.37L356.22-2.37Q355.20-0.77 353.02 0.26L353.02 0.26L353.02 0.26Q350.85 1.28 347.94 1.28L347.94 1.28L347.94 1.28Q345.02 1.28 342.66 0.51L342.66 0.51L342.66 0.51Q340.29-0.26 338.78-1.92ZM352.29-27.90L352.29-27.90L352.29-27.90Q351.55-26.75 350.91-24.80L350.91-24.80L350.91-24.80Q350.27-22.85 349.22-17.63L349.22-17.63L349.22-17.63Q348.16-12.42 348.16-8.70L348.16-8.70L348.16-8.70Q348.16-4.99 348.74-3.90L348.74-3.90L348.74-3.90Q349.31-2.82 350.34-2.82L350.34-2.82L350.34-2.82Q352.38-2.82 353.89-4.77L353.89-4.77L353.89-4.77Q355.39-6.72 355.97-10.18L355.97-10.18L359.36-28.93L359.36-28.93Q358.02-30.08 356.45-30.08L356.45-30.08L356.45-30.08Q354.88-30.08 353.95-29.57L353.95-29.57L353.95-29.57Q353.02-29.06 352.29-27.90ZM391.49-3.52L391.49-3.52L391.49-3.52Q389.50 1.28 383.17 1.28L383.17 1.28L383.17 1.28Q379.97 1.28 377.92-0.96L377.92-0.96L377.92-0.96Q376.26-2.82 376.26-4.93L376.26-4.93L376.26-4.93Q376.26-9.73 378.50-20.22L378.50-20.22L383.17-44.80L396.16-46.08L389.95-13.70L389.95-13.70Q388.86-8.96 388.86-7.30L388.86-7.30L388.86-7.30Q388.86-3.65 391.49-3.52ZM412.22-3.52L412.22-3.52L412.22-3.52Q410.24 1.28 403.90 1.28L403.90 1.28L403.90 1.28Q400.70 1.28 398.66-0.96L398.66-0.96L398.66-0.96Q396.99-2.82 396.99-4.93L396.99-4.93L396.99-4.93Q396.99-9.73 399.23-20.22L399.23-20.22L403.90-44.80L416.90-46.08L410.69-13.70L410.69-13.70Q409.60-8.96 409.60-7.30L409.60-7.30L409.60-7.30Q409.60-3.65 412.22-3.52ZM431.62 1.28L431.62 1.28L431.62 1.28Q417.54 1.28 417.54-11.97L417.54-11.97L417.54-11.97Q417.54-21.38 422.72-27.46L422.72-27.46L422.72-27.46Q428.22-33.92 437.76-33.92L437.76-33.92L437.76-33.92Q444.67-33.92 448.19-30.72L448.19-30.72L448.19-30.72Q451.71-27.52 451.71-20.80L451.71-20.80L451.71-20.80Q451.71-10.56 446.21-4.61L446.21-4.61L446.21-4.61Q440.83 1.28 431.62 1.28ZM433.28-26.56L433.28-26.56L433.28-26.56Q432.51-24.83 431.90-22.24L431.90-22.24L431.90-22.24Q431.30-19.65 430.53-15.55L430.53-15.55L430.53-15.55Q429.76-11.46 429.76-6.40L429.76-6.40L429.76-6.40Q429.76-4.74 430.30-3.65L430.30-3.65L430.30-3.65Q430.85-2.56 432.32-2.56L432.32-2.56L432.32-2.56Q433.79-2.56 434.72-3.26L434.72-3.26L434.72-3.26Q435.65-3.97 436.35-5.63L436.35-5.63L436.35-5.63Q437.63-8.58 438.66-14.05L438.66-14.05L438.66-14.05Q439.68-19.52 439.78-21.89L439.78-21.89L439.78-21.89Q439.87-24.26 439.87-26.02L439.87-26.02L439.87-26.02Q439.87-27.78 439.36-28.93L439.36-28.93L439.36-28.93Q438.85-30.08 437.41-30.08L437.41-30.08L437.41-30.08Q435.97-30.08 435.01-29.18L435.01-29.18L435.01-29.18Q434.05-28.29 433.28-26.56Z" fill="#eb6c6c"></path></g></g><style>text {
  font-size: 64px;
  font-family: Arial Black;
  dominant-baseline: central;
  text-anchor: middle;
}</style></svg>